<svg width="205" height="79" viewBox="0 0 205 79" fill="none" xmlns="http://www.w3.org/2000/svg">
<path d="M15.9551 40.6357C13.8018 40.6357 11.7715 40.2461 9.88477 39.4668C7.97754 38.6875 6.35742 37.6006 5.00391 36.2471C3.65039 34.8936 2.58398 33.2734 1.80469 31.3662C1.02539 29.4795 0.635742 27.4492 0.635742 25.2959C0.635742 22.4248 1.29199 19.8203 2.625 17.4824C3.95801 15.1445 5.80371 13.3193 8.1416 11.9863C10.4795 10.6533 13.084 9.97656 15.9551 9.97656C17.9648 9.97656 19.9131 10.3252 21.7588 11.0225C23.6045 11.7197 25.2246 12.7656 26.6602 14.1191V22.1582C25.9834 19.7383 24.6709 17.79 22.7021 16.334C20.7334 14.8984 18.498 14.1602 15.9551 14.1602C13.8633 14.1602 11.9766 14.6523 10.2744 15.6162C8.57227 16.6006 7.23926 17.9336 6.27539 19.6357C5.31152 21.3379 4.83984 23.2246 4.83984 25.2959C4.83984 27.3877 5.31152 29.2744 6.27539 30.9766C7.23926 32.6787 8.57227 34.0117 10.2744 34.9756C11.9766 35.96 13.8633 36.4316 15.9551 36.4316C18.498 36.4316 20.7334 35.7139 22.7021 34.2783C24.6709 32.8428 25.9834 30.8945 26.6602 28.4541V36.4727C25.2246 37.8467 23.584 38.8926 21.7383 39.5898C19.8926 40.2871 17.9648 40.6357 15.9551 40.6357ZM34.6377 40H30.4336V10.5918H47.168C49.5469 10.5918 51.5566 11.4121 53.2178 13.0117C54.8789 14.6318 55.7197 16.6211 55.7197 19V23.7783C55.7197 24.6602 55.6992 25.501 55.6582 26.3008C55.6172 27.1211 55.5557 28.085 55.4326 29.2129C55.3096 30.3408 55.125 31.3662 54.9199 32.3096C54.7148 33.2529 54.4072 34.2168 54.0176 35.2012C53.6074 36.1855 53.1562 37.0264 52.623 37.7031C52.0898 38.3799 51.4336 38.9336 50.6338 39.3643C49.8135 39.7949 48.9316 40 47.9473 40H41.2002C40.4619 39.0156 40.0928 37.9082 40.0928 36.6777C40.0928 36.1035 40.1748 35.5088 40.3799 34.9346C40.585 34.3604 40.8311 33.8271 41.1182 33.335C41.4053 32.8633 41.7744 32.3711 42.2666 31.8584C42.7588 31.3457 43.21 30.915 43.6201 30.5459C44.0303 30.1768 44.5635 29.7871 45.1787 29.3359C45.7939 28.8848 46.3066 28.5361 46.6963 28.29C47.0859 28.0439 47.5781 27.7363 48.1729 27.3672C47.9473 27.4082 47.6191 27.4082 47.168 27.4082H34.6377V40ZM46.3271 14.7959H34.6377V23.2041H46.3271C47.7012 23.2041 48.8906 22.835 49.875 22.0967C50.8594 21.3584 51.3516 20.333 51.3516 19C51.3516 17.6875 50.8389 16.6621 49.8545 15.9238C48.8496 15.1855 47.6807 14.7959 46.3271 14.7959ZM44.2969 35.0781C44.2969 36.2061 44.6045 37.1084 45.2607 37.7646C45.917 38.4209 46.7988 38.749 47.9062 38.749C48.7676 38.749 49.5469 38.5439 50.2441 38.1133C50.9414 37.6826 51.5156 37.1289 51.9668 36.4521C52.418 35.7959 52.8076 34.9756 53.1562 34.0117C53.4844 33.0479 53.751 32.1045 53.9355 31.2021C54.0996 30.2998 54.2432 29.3154 54.3457 28.2285C54.4482 27.1621 54.5098 26.2598 54.5508 25.5215C54.5713 24.8037 54.5918 24.0654 54.5918 23.2861C54.2432 23.8809 53.7305 24.4756 53.0332 25.0908C52.3359 25.7061 51.6387 26.2393 50.9004 26.7314C50.1621 27.2236 49.3828 27.7568 48.583 28.3721C47.7832 28.9873 47.0654 29.6025 46.4502 30.2178C45.8145 30.833 45.3018 31.5508 44.8916 32.3916C44.4814 33.2529 44.2969 34.1348 44.2969 35.0781ZM72.9258 9.97656C75.6533 9.97656 78.1553 10.5918 80.4521 11.8223C82.7285 10.5918 85.2305 9.97656 87.958 9.97656C90.0908 9.97656 92.1211 10.3662 94.0283 11.1455C95.915 11.9248 97.5557 12.9912 98.9092 14.3447C100.263 15.6982 101.329 17.3389 102.108 19.2256C102.888 21.1328 103.298 23.1631 103.298 25.2959C103.298 27.4492 102.888 29.4795 102.108 31.3662C101.329 33.2734 100.263 34.8936 98.9092 36.2471C97.5557 37.6006 95.915 38.6875 94.0283 39.4668C92.1211 40.2461 90.0908 40.6357 87.958 40.6357C85.333 40.6357 82.8311 40.0205 80.4932 38.79C78.1348 40.0205 75.6123 40.6357 72.9258 40.6357C70.7725 40.6357 68.7422 40.2461 66.8555 39.4668C64.9482 38.6875 63.3281 37.6006 61.9746 36.2471C60.6211 34.8936 59.5547 33.2734 58.7754 31.3662C57.9961 29.4795 57.6064 27.4492 57.6064 25.2959C57.6064 22.4248 58.2627 19.8203 59.5957 17.4824C60.9287 15.1445 62.7744 13.3193 65.1123 11.9863C67.4502 10.6533 70.0547 9.97656 72.9258 9.97656ZM87.958 36.4316C90.0293 36.4316 91.916 35.96 93.6182 34.9756C95.3203 34.0117 96.6533 32.6787 97.6377 30.9766C98.6016 29.2744 99.0938 27.3877 99.0938 25.2959C99.0938 23.2246 98.6016 21.3379 97.6377 19.6357C96.6533 17.9336 95.3203 16.6006 93.6182 15.6162C91.916 14.6523 90.0293 14.1602 87.958 14.1602C85.415 14.1602 83.2412 14.8369 81.416 16.1904C82.6875 17.2773 83.6719 18.6309 84.3281 20.2305C84.9844 21.8506 85.3125 23.5527 85.3125 25.3369C85.3125 27.1006 84.9844 28.8027 84.3281 30.4023C83.6719 32.0225 82.7285 33.3965 81.498 34.5039C83.3643 35.7959 85.5176 36.4316 87.958 36.4316ZM61.8105 25.2959C61.8105 27.3877 62.2822 29.2744 63.2461 30.9766C64.21 32.6787 65.543 34.0117 67.2451 34.9756C68.9473 35.96 70.834 36.4316 72.9258 36.4316C75.3252 36.4316 77.4785 35.7754 79.4062 34.4629C78.1348 33.3555 77.1914 32.002 76.5352 30.4023C75.8789 28.8027 75.5713 27.1006 75.5713 25.3369C75.5713 23.5732 75.8994 21.8711 76.5557 20.251C77.2119 18.6309 78.1758 17.2773 79.4883 16.1904C77.6016 14.8369 75.4072 14.1602 72.9258 14.1602C70.834 14.1602 68.9473 14.6523 67.2451 15.6162C65.543 16.6006 64.21 17.9336 63.2461 19.6357C62.2822 21.3379 61.8105 23.2246 61.8105 25.2959ZM80.4521 16.9492C79.3037 18.0156 78.4014 19.2871 77.7861 20.7432C77.1504 22.1992 76.8428 23.7168 76.8428 25.2959C76.8428 26.8955 77.1504 28.4131 77.7861 29.8691C78.4014 31.3457 79.3037 32.5967 80.4521 33.6631C81.6006 32.5967 82.4824 31.3457 83.1182 29.8691C83.7334 28.4131 84.0615 26.8955 84.0615 25.2959C84.0615 23.7168 83.7334 22.1992 83.1182 20.7432C82.4824 19.2871 81.6006 18.0156 80.4521 16.9492ZM133.957 32.4736C133.957 31.0586 134.162 29.6641 134.531 28.2695C134.9 26.8955 135.331 25.6855 135.864 24.6191C136.377 23.5527 136.89 22.5479 137.423 21.584C137.936 20.6201 138.366 19.6562 138.735 18.6924C139.104 17.7285 139.289 16.8467 139.289 16.0264C139.289 14.8369 138.94 13.8525 138.243 13.0527C137.546 12.2734 136.603 11.8633 135.434 11.8633C134.572 11.8633 133.854 12.1094 133.26 12.6016C132.665 13.0938 132.234 13.7295 131.968 14.5293C131.681 15.3291 131.496 16.1084 131.394 16.8467C131.271 17.585 131.229 18.3643 131.229 19.1641C131.229 19.9023 131.271 20.6816 131.353 21.502C131.435 22.3223 131.537 23.0195 131.64 23.6348C131.742 24.25 131.906 25.0293 132.132 25.9521C132.357 26.875 132.542 27.5723 132.665 28.0439C132.788 28.5361 133.014 29.2949 133.321 30.3203C133.629 31.3662 133.834 32.084 133.957 32.4736ZM110.229 11.8633V40H106.025V10.5918H127.62L130.225 19.5537V19.123C130.225 18.3643 130.245 17.626 130.327 16.9287C130.409 16.2314 130.553 15.4727 130.799 14.6729C131.045 13.873 131.353 13.1758 131.722 12.6016C132.091 12.0273 132.583 11.5557 133.239 11.166C133.875 10.7969 134.613 10.5918 135.475 10.5918H142.242C143.062 11.7402 143.493 13.1553 143.493 14.7959C143.493 15.7803 143.329 16.6826 143.021 17.5439C142.693 18.4053 142.283 19.1846 141.791 19.8613C141.299 20.5586 140.745 21.2354 140.13 21.8916C139.515 22.5684 138.92 23.2656 138.305 24.0039C137.689 24.7422 137.136 25.501 136.644 26.3213C136.151 27.1416 135.741 28.126 135.434 29.2539C135.105 30.3818 134.962 31.5918 134.962 32.9043C134.962 34.709 135.352 37.0674 136.151 40H131.66L123.129 10.5918L114.598 40H110.229L118.392 11.8633H110.229ZM153.768 10.3867H160.986C162.996 10.3867 164.903 10.7969 166.708 11.5762C168.513 12.376 170.03 13.4424 171.302 14.7754C172.573 16.1084 173.578 17.6875 174.316 19.5127C175.055 21.3379 175.424 23.2451 175.424 25.2549C175.424 27.2852 175.055 29.2129 174.316 31.0176C173.578 32.8223 172.573 34.4014 171.302 35.7139C170.03 37.0264 168.513 38.0723 166.708 38.8516C164.903 39.6309 162.996 40 160.986 40H145.195V18.7129C145.195 16.3135 146.016 14.3242 147.656 12.7451C149.297 11.1865 151.348 10.3867 153.768 10.3867ZM165.272 15.5137L150.158 35.7959H161.027C163.98 35.7959 166.421 34.791 168.349 32.7812C170.276 30.7715 171.24 28.2695 171.24 25.2959C171.24 23.2041 170.707 21.2559 169.661 19.4717C168.595 17.708 167.139 16.375 165.272 15.5137ZM164.145 15.042C163.078 14.7549 162.053 14.5908 161.027 14.5908H153.727C152.496 14.5908 151.45 15.001 150.63 15.8008C149.81 16.6006 149.399 17.6055 149.399 18.8359C149.399 20.0664 149.789 21.0713 150.609 21.8506C151.43 22.6299 152.455 22.999 153.686 22.999C154.178 22.999 154.69 22.9375 155.203 22.8145C155.716 22.6914 156.188 22.5684 156.598 22.4043C157.008 22.2607 157.438 22.0146 157.931 21.666C158.423 21.3379 158.812 21.0508 159.141 20.8047C159.469 20.5791 159.858 20.21 160.33 19.7178C160.781 19.2256 161.13 18.877 161.355 18.6309C161.581 18.3848 161.93 17.9746 162.381 17.3799C162.832 16.8057 163.119 16.416 163.263 16.2314C163.406 16.0469 163.693 15.6572 164.145 15.042ZM146.446 23.2451V38.8311L160.146 20.4355C159.592 21.0918 159.141 21.6045 158.812 21.9736C158.464 22.3633 157.972 22.876 157.315 23.4912C156.659 24.1064 156.085 24.5986 155.552 24.9678C155.019 25.3369 154.424 25.6445 153.727 25.9316C153.029 26.2188 152.373 26.3418 151.737 26.3418C150.63 26.3418 149.625 26.0752 148.702 25.501C147.759 24.9473 147.021 24.1885 146.446 23.2451ZM182.971 40H177.762V13.4629C179.566 11.2275 181.699 10.0996 184.181 10.0996C186.313 10.0996 187.934 10.7969 189.082 12.1914C190.21 13.5859 190.784 15.3496 190.784 17.5234C190.784 18.4873 190.661 19.5127 190.415 20.5791C190.169 21.6455 189.902 22.5889 189.615 23.4092C189.328 24.2295 188.877 25.2344 188.282 26.4033C187.688 27.5928 187.216 28.4951 186.867 29.1104C186.498 29.7256 185.944 30.6689 185.206 31.8994C184.447 33.1504 183.935 33.9912 183.688 34.4219L183.771 34.5039C185.575 31.4688 187.831 27.9414 190.538 23.9219C191.03 23.1836 191.933 21.8096 193.266 19.7793C194.578 17.7695 195.727 16.0469 196.69 14.6523C197.634 13.2578 198.598 11.9043 199.562 10.5918H204.771L182.971 40ZM188.897 19.7998C188.897 19.1846 188.815 18.5693 188.692 17.9336C188.569 17.2979 188.364 16.6826 188.098 16.0674C187.811 15.4521 187.421 14.96 186.908 14.5703C186.396 14.2012 185.801 13.9961 185.145 13.9961C184.181 13.9961 183.299 14.3652 182.479 15.0625C181.658 15.7803 181.002 16.6621 180.51 17.7285C180.018 18.7949 179.648 19.8613 179.382 20.9482C179.095 22.0352 178.972 23.0195 178.972 23.8809V38.4004C179.136 38.1748 179.525 37.6826 180.141 36.9033C180.756 36.124 181.187 35.5703 181.474 35.2012C181.74 34.832 182.171 34.2578 182.766 33.458C183.34 32.6787 183.791 32.043 184.099 31.5713C184.406 31.1201 184.816 30.4844 185.329 29.7051C185.821 28.9258 186.211 28.249 186.498 27.6953C186.785 27.1621 187.093 26.5059 187.441 25.7471C187.79 25.0088 188.057 24.332 188.241 23.7168C188.405 23.1016 188.569 22.4658 188.692 21.7686C188.815 21.0918 188.897 20.4355 188.897 19.7998Z" fill="black"/>
<path d="M30.364 73.24C26.884 73.24 24.7 70.552 24.7 67.024C24.7 63.496 26.884 60.832 30.364 60.832C33.1 60.832 34.66 62.296 35.188 64.144H35.788L35.428 62.728V55.36H37.54V73H35.428V71.344L35.788 69.904H35.188C34.66 71.752 33.1 73.24 30.364 73.24ZM26.836 67.024C26.836 70.096 28.612 71.416 31.036 71.416C33.46 71.416 35.428 70.096 35.428 67.024C35.428 63.952 33.46 62.656 31.036 62.656C28.612 62.656 26.836 63.952 26.836 67.024ZM40.45 66.88C40.45 63.016 42.754 60.832 46.162 60.832C49.69 60.832 51.994 62.968 51.994 66.664V67.432H42.514C42.586 69.76 43.81 71.536 46.282 71.536C48.322 71.536 49.522 70.48 49.93 68.824H52.042C51.562 71.032 49.978 73.24 46.306 73.24C42.418 73.24 40.45 70.408 40.45 66.88ZM42.538 65.92H49.906C49.762 63.76 48.298 62.512 46.162 62.512C44.194 62.512 42.706 63.76 42.538 65.92ZM63.4015 61.072H65.5135L61.7215 73H57.2815L53.4175 61.072H55.5535L59.2015 72.4H59.8015L63.4015 61.072ZM66.9109 66.88C66.9109 63.016 69.2149 60.832 72.6229 60.832C76.1509 60.832 78.4549 62.968 78.4549 66.664V67.432H68.9749C69.0469 69.76 70.2709 71.536 72.7429 71.536C74.7829 71.536 75.9829 70.48 76.3909 68.824H78.5029C78.0229 71.032 76.4389 73.24 72.7669 73.24C68.8789 73.24 66.9109 70.408 66.9109 66.88ZM68.9989 65.92H76.3669C76.2229 63.76 74.7589 62.512 72.6229 62.512C70.6549 62.512 69.1669 63.76 68.9989 65.92ZM80.0783 73V71.176H83.4143V57.184H80.9183V55.36H84.3023C85.0943 55.36 85.5503 55.768 85.5503 56.56V71.176H88.8863V73H80.0783ZM90.0438 67.024C90.0438 63.496 92.5638 60.832 96.3798 60.832C100.172 60.832 102.692 63.496 102.692 67.024C102.692 70.576 100.172 73.24 96.3798 73.24C92.5638 73.24 90.0438 70.576 90.0438 67.024ZM92.1558 67.024C92.1558 69.448 93.6438 71.416 96.3798 71.416C99.0918 71.416 100.58 69.448 100.58 67.024C100.58 64.624 99.0918 62.656 96.3798 62.656C93.6438 62.656 92.1558 64.624 92.1558 67.024ZM105.571 77.656V61.072H107.707V62.728L107.347 64.144H107.947C108.451 62.296 110.011 60.832 112.747 60.832C116.227 60.832 118.411 63.496 118.411 67.048C118.411 70.552 116.227 73.24 112.747 73.24C110.011 73.24 108.451 71.752 107.947 69.904H107.347L107.707 71.344V77.656H105.571ZM107.707 67.048C107.707 70.12 109.651 71.416 112.075 71.416C114.523 71.416 116.299 70.072 116.299 67.048C116.299 64 114.523 62.656 112.075 62.656C109.651 62.656 107.707 63.952 107.707 67.048ZM121.297 73V61.072H123.433V63.016L123.073 64.456H123.673C124.153 62.296 125.377 60.832 127.921 60.832C130.105 60.832 131.209 62.32 131.497 64.456H131.881C132.361 62.296 133.585 60.832 136.129 60.832C138.673 60.832 139.849 62.872 139.849 65.584V73H137.713V66.04C137.713 63.736 137.209 62.656 135.313 62.656C132.985 62.656 131.641 64.72 131.641 67.84V73H129.505V66.04C129.505 63.736 129.001 62.656 127.105 62.656C124.777 62.656 123.433 64.72 123.433 67.84V73H121.297ZM142.497 66.88C142.497 63.016 144.801 60.832 148.209 60.832C151.737 60.832 154.041 62.968 154.041 66.664V67.432H144.561C144.633 69.76 145.857 71.536 148.329 71.536C150.369 71.536 151.569 70.48 151.977 68.824H154.089C153.609 71.032 152.025 73.24 148.353 73.24C144.465 73.24 142.497 70.408 142.497 66.88ZM144.585 65.92H151.953C151.809 63.76 150.345 62.512 148.209 62.512C146.241 62.512 144.753 63.76 144.585 65.92ZM156.946 73V61.072H159.082V63.064L158.722 64.504H159.322C159.802 62.344 161.314 60.832 163.906 60.832C166.618 60.832 168.394 62.416 168.394 65.776V73H166.282V66.064C166.282 63.592 165.322 62.656 163.306 62.656C160.81 62.656 159.082 64.552 159.082 67.768V73H156.946ZM179.114 71.176V73H174.434C173.306 73 172.754 72.472 172.754 71.32V62.896H170.114V61.072H172.754V58.048L174.89 57.4V61.072H178.634V62.896H174.89V71.2L179.114 71.176Z" fill="black"/>
<path d="M0 51H204V49H0V51Z" fill="#606060" mask="url(#path-2-inside-1_24_17)"/>
</svg>
